<svg width="41" height="42" viewBox="0 0 41 42" fill="none" xmlns="http://www.w3.org/2000/svg">
<path d="M35.4792 12.1274L19.307 21.1062M19.307 21.1062L3.13484 12.1274M19.307 21.1062L19.3071 39.1696M36.4306 21.1063V13.3893C36.4306 12.7378 36.4306 12.4121 36.3346 12.1215C36.2496 11.8645 36.1107 11.6286 35.9271 11.4295C35.7196 11.2045 35.4347 11.0463 34.8648 10.7299L20.7855 2.91305C20.2459 2.61346 19.9761 2.46367 19.6904 2.40495C19.4375 2.35297 19.1767 2.35297 18.9238 2.40495C18.6381 2.46367 18.3683 2.61347 17.8287 2.91305L3.74939 10.7299C3.17952 11.0463 2.89457 11.2045 2.68709 11.4295C2.50353 11.6286 2.36462 11.8645 2.27965 12.1215C2.18359 12.4121 2.18359 12.7378 2.18359 13.3893V28.8232C2.18359 29.4747 2.18359 29.8005 2.27965 30.091C2.36462 30.348 2.50353 30.5839 2.68709 30.783C2.89457 31.008 3.17953 31.1662 3.74939 31.4826L17.8287 39.2995C18.3683 39.5991 18.6381 39.7488 18.9238 39.8076C19.1767 39.8595 19.4375 39.8595 19.6904 39.8076C19.9761 39.7488 20.2459 39.5991 20.7855 39.2995L21.2097 39.0639M10.7453 6.84575L27.8689 16.3528M38.3332 39.1696L36.4306 37.2682M38.3332 32.5147C38.3332 35.665 35.7777 38.2189 32.6254 38.2189C29.473 38.2189 26.9176 35.665 26.9176 32.5147C26.9176 29.3643 29.473 26.8105 32.6254 26.8105C35.7777 26.8105 38.3332 29.3643 38.3332 32.5147Z" stroke="#8229E0" stroke-width="4" stroke-linecap="round" stroke-linejoin="round"/>
</svg>
