<?xml version="1.0" encoding="UTF-8"?>
<svg id="Layer_2" data-name="Layer 2" xmlns="http://www.w3.org/2000/svg" viewBox="0 0 360 252">
  <defs>
    <style>
      .cls-1 {
        fill: #494eac;
      }

      .cls-1, .cls-2 {
        stroke-width: 0px;
      }

      .cls-2 {
        fill: #fff;
      }
    </style>
  </defs>
  <g id="Layer_12" data-name="Layer 12">
    <g id="light">
      <rect class="cls-2" width="360" height="252"/>
      <g id="Wordmark">
        <path class="cls-1" d="m98.86,187.04c-3.74,0-7.2-.67-10.36-2.02-3.17-1.34-5.94-3.2-8.31-5.58-2.38-2.37-4.21-5.15-5.51-8.31s-1.94-6.57-1.94-10.22.65-7.05,1.94-10.22,3.12-5.92,5.47-8.28c2.35-2.35,5.11-4.2,8.28-5.54,3.17-1.34,6.6-2.02,10.29-2.02,4.13,0,7.71.66,10.76,1.98,1.23.53,2.4,1.14,3.52,1.83,2.56,1.57,3,5.12.87,7.24h0c-1.56,1.56-3.98,1.77-5.84.58-.7-.45-1.46-.85-2.26-1.19-2.02-.86-4.37-1.3-7.05-1.3-2.3,0-4.43.4-6.37,1.19-1.94.79-3.63,1.94-5.07,3.45-1.44,1.51-2.54,3.31-3.31,5.4-.77,2.09-1.15,4.38-1.15,6.87s.38,4.86,1.15,6.94c.77,2.09,1.87,3.87,3.31,5.36,1.44,1.49,3.13,2.64,5.07,3.45,1.94.82,4.09,1.22,6.44,1.22,2.83,0,5.25-.44,7.27-1.33.82-.36,1.59-.78,2.32-1.24,1.85-1.2,4.28-.98,5.84.58h.01c2.13,2.15,1.68,5.7-.9,7.27-1.17.71-2.41,1.34-3.7,1.89-3.14,1.32-6.73,1.98-10.76,1.98Z"/>
        <path class="cls-1" d="m164.92,187.04c-3.5,0-6.66-.8-9.46-2.41-2.81-1.61-5.03-3.79-6.66-6.55-1.63-2.76-2.45-5.87-2.45-9.32s.82-6.47,2.45-9.18c1.63-2.71,3.85-4.87,6.66-6.48s5.96-2.41,9.46-2.41,6.73.79,9.54,2.37c2.81,1.58,5.04,3.74,6.69,6.48,1.66,2.73,2.48,5.81,2.48,9.21s-.82,6.5-2.45,9.28c-1.63,2.78-3.86,4.98-6.69,6.59-2.83,1.61-6.02,2.41-9.57,2.41Zm0-8.85c1.77,0,3.35-.41,4.71-1.22,1.37-.82,2.42-1.92,3.17-3.31.74-1.39,1.12-3,1.12-4.82s-.4-3.43-1.19-4.82c-.79-1.39-1.85-2.48-3.17-3.27-1.32-.79-2.87-1.19-4.64-1.19s-3.26.4-4.61,1.19c-1.34.79-2.39,1.88-3.13,3.27-.74,1.39-1.12,3-1.12,4.82s.37,3.43,1.12,4.82c.74,1.39,1.79,2.5,3.13,3.31,1.34.82,2.88,1.22,4.61,1.22Z"/>
        <path class="cls-1" d="m211.73,151.49h-3.99v-10.33c0-2.29-1.85-4.14-4.14-4.14h-1.15c-2.29,0-4.14,1.85-4.14,4.14v10.33h-3.99c-2.29,0-4.14,1.85-4.14,4.14s1.85,4.14,4.14,4.14h3.99v22.35c0,2.29,1.85,4.14,4.14,4.14h1.15c2.29,0,4.14-1.85,4.14-4.14v-22.35h3.99c2.29,0,4.14-1.85,4.14-4.14s-1.85-4.14-4.14-4.14Z"/>
        <path class="cls-1" d="m255.89,157.17c-1.15-2.02-2.73-3.59-4.75-4.71-2.02-1.13-4.34-1.69-6.98-1.69s-4.99.58-7.05,1.73c-1.09.61-2.04,1.35-2.88,2.2v-18.42c0-1.14-.92-2.06-2.06-2.06h-5.3c-1.14,0-2.06.92-2.06,2.06v47.9c0,1.14.92,2.06,2.06,2.06h5.3c1.14,0,2.06-.92,2.06-2.06v-19.7c.17-.2.31-.42.4-.69.13-.39.3-.76.5-1.12.6-1.08,1.43-1.91,2.48-2.48,1.05-.58,2.25-.86,3.6-.86,2.01,0,3.67.65,4.97,1.94,1.3,1.3,1.94,2.98,1.94,5.04v17.87c0,1.14.92,2.06,2.06,2.06h5.37c1.14,0,2.06-.92,2.06-2.06v-20.03c0-2.64-.58-4.97-1.73-6.98Z"/>
        <path class="cls-1" d="m285.1,187.04c-3.5,0-6.66-.8-9.46-2.41-2.81-1.61-5.03-3.79-6.66-6.55-1.63-2.76-2.45-5.87-2.45-9.32s.82-6.47,2.45-9.18c1.63-2.71,3.85-4.87,6.66-6.48s5.96-2.41,9.46-2.41,6.73.79,9.54,2.37c2.81,1.58,5.04,3.74,6.69,6.48,1.65,2.73,2.48,5.81,2.48,9.21s-.82,6.5-2.45,9.28c-1.63,2.78-3.86,4.98-6.69,6.59-2.83,1.61-6.02,2.41-9.57,2.41Zm0-8.85c1.77,0,3.35-.41,4.71-1.22,1.37-.82,2.42-1.92,3.17-3.31.74-1.39,1.12-3,1.12-4.82s-.4-3.43-1.19-4.82c-.79-1.39-1.85-2.48-3.17-3.27-1.32-.79-2.87-1.19-4.64-1.19s-3.26.4-4.61,1.19c-1.34.79-2.39,1.88-3.13,3.27-.74,1.39-1.12,3-1.12,4.82s.37,3.43,1.12,4.82c.74,1.39,1.79,2.5,3.13,3.31,1.34.82,2.88,1.22,4.61,1.22Z"/>
        <path class="cls-1" d="m136.86,151.49v-10.33c0-2.29-1.85-4.14-4.14-4.14h-1.15c-2.29,0-4.14,1.85-4.14,4.14v40.95c0,2.29,1.85,4.14,4.14,4.14h1.15c2.29,0,4.14-1.85,4.14-4.14v-30.62Z"/>
      </g>
      <g>
        <path class="cls-1" d="m161.13,44.39l.92,16.06c.09,1.54,1.98,2.22,3.03,1.09l.69-.75c3.06-3.3,6.88-5.8,11.12-7.29l.93-.33c1.45-.51,1.58-2.52.21-3.21l-14.36-7.23c-1.2-.61-2.61.32-2.53,1.66Z"/>
        <path class="cls-1" d="m213.85,44.08l.22,16.08c.02,1.54-1.82,2.35-2.94,1.3l-.74-.7c-3.29-3.07-7.27-5.3-11.61-6.49l-.95-.26c-1.49-.41-1.76-2.4-.43-3.19l13.81-8.23c1.16-.69,2.63.13,2.64,1.48Z"/>
        <path class="cls-1" d="m154.35,72.09l-11.15-4.14c-.62-.23-.93-.91-.7-1.53s.91-.93,1.53-.7l11.15,4.14c.62.23.93.91.7,1.53s-.91.93-1.53.7Z"/>
        <path class="cls-1" d="m141.75,78.53c-.4-.15-.71-.52-.77-.98-.08-.65.39-1.24,1.04-1.32l11.81-1.41c.65-.08,1.24.39,1.32,1.04.08.65-.39,1.24-1.04,1.32l-11.81,1.41c-.19.02-.38,0-.55-.07Z"/>
        <path class="cls-1" d="m144.76,89.01c-.21-.08-.4-.22-.54-.41-.39-.53-.28-1.27.25-1.66l9.58-7.04c.53-.39,1.27-.28,1.66.25.39.53.28,1.27-.25,1.66l-9.58,7.04c-.34.25-.76.29-1.12.16Z"/>
        <path class="cls-1" d="m222.2,71.36l11.15-4.14c.62-.23.93-.91.7-1.53s-.91-.93-1.53-.7l-11.15,4.14c-.62.23-.93.91-.7,1.53s.91.93,1.53.7Z"/>
        <path class="cls-1" d="m234.79,77.8c.4-.15.71-.52.77-.98.08-.65-.39-1.24-1.04-1.32l-11.81-1.41c-.65-.08-1.24.39-1.32,1.04-.08.65.39,1.24,1.04,1.32l11.81,1.41c.19.02.38,0,.55-.07Z"/>
        <path class="cls-1" d="m231.79,88.28c.21-.08.4-.22.54-.41.39-.53.28-1.27-.25-1.66l-9.58-7.04c-.53-.39-1.27-.28-1.66.25-.39.53-.28,1.27.25,1.66l9.58,7.04c.34.25.76.29,1.12.16Z"/>
        <path class="cls-1" d="m206.56,102.7l-18.29,10.56-18.29-10.56c-1.92-1.11-4.33.28-4.33,2.5v21.12c0,2.22,2.41,3.61,4.33,2.5l18.29-10.56,18.29,10.56c1.93,1.11,4.33-.28,4.33-2.5v-21.12c0-2.22-2.41-3.61-4.33-2.5Z"/>
        <ellipse class="cls-1" cx="188.23" cy="76.64" rx="31.83" ry="28.61"/>
      </g>
    </g>
  </g>
</svg>