<svg width="43" height="43" viewBox="0 0 43 43" fill="none" xmlns="http://www.w3.org/2000/svg">
<path d="M3.98109 28.2264L7.60257 26.1371C7.79873 26.024 8.02892 25.9846 8.25156 26.0263L15.3771 27.359C15.9626 27.4685 16.5032 27.018 16.5005 26.4227L16.4728 20.1834C16.472 20.0139 16.5168 19.8472 16.6023 19.7009L20.1982 13.5484C20.3854 13.2282 20.3686 12.8284 20.1553 12.525L14.1008 3.91247M34.9417 7.76905C24.5035 12.7781 30.1967 19.4163 32.0949 20.3647C35.6573 22.1444 40.6114 22.2612 40.6114 22.2612C40.6269 21.9471 40.6349 21.6309 40.6349 21.3129C40.6349 10.838 32.1379 2.34644 21.6563 2.34644C11.1747 2.34644 2.67773 10.838 2.67773 21.3129C2.67773 31.7878 11.1747 40.2794 21.6563 40.2794C21.9745 40.2794 22.2909 40.2716 22.6052 40.2561M30.6859 40.1652L24.6758 24.3305L40.5206 30.3368L33.4944 33.1435L30.6859 40.1652Z" stroke="#8229E0" stroke-width="4" stroke-linecap="round" stroke-linejoin="round"/>
</svg>
