<?xml version="1.0" encoding="UTF-8"?>
<svg id="Layer_2" data-name="Layer 2" xmlns="http://www.w3.org/2000/svg" viewBox="0 0 94.59 86.86">
  <defs>
    <style>
      .cls-1 {
        fill: #494eac;
        stroke-width: 0px;
      }
    </style>
  </defs>
  <g id="Layer_12" data-name="Layer 12">
    <g>
      <path class="cls-1" d="m20.15,2.04l.92,16.06c.09,1.54,1.98,2.22,3.03,1.09l.69-.75c3.06-3.3,6.88-5.8,11.12-7.29l.93-.33c1.45-.51,1.58-2.52.21-3.21L22.68.38c-1.2-.61-2.61.32-2.53,1.66Z"/>
      <path class="cls-1" d="m72.87,1.73l.22,16.08c.02,1.54-1.82,2.35-2.94,1.3l-.74-.7c-3.29-3.07-7.27-5.3-11.61-6.49l-.95-.26c-1.49-.41-1.76-2.4-.43-3.19L70.23.25c1.16-.69,2.63.13,2.64,1.48Z"/>
      <path class="cls-1" d="m13.37,29.74l-11.15-4.14c-.62-.23-.93-.91-.7-1.53s.91-.93,1.53-.7l11.15,4.14c.62.23.93.91.7,1.53s-.91.93-1.53.7Z"/>
      <path class="cls-1" d="m.78,36.17c-.4-.15-.71-.52-.77-.98-.08-.65.39-1.24,1.04-1.32l11.81-1.41c.65-.08,1.24.39,1.32,1.04.08.65-.39,1.24-1.04,1.32l-11.81,1.41c-.19.02-.38,0-.55-.07Z"/>
      <path class="cls-1" d="m3.78,46.65c-.21-.08-.4-.22-.54-.41-.39-.53-.28-1.27.25-1.66l9.58-7.04c.53-.39,1.27-.28,1.66.25.39.53.28,1.27-.25,1.66l-9.58,7.04c-.34.25-.76.29-1.12.16Z"/>
      <path class="cls-1" d="m81.22,29.01l11.15-4.14c.62-.23.93-.91.7-1.53s-.91-.93-1.53-.7l-11.15,4.14c-.62.23-.93.91-.7,1.53s.91.93,1.53.7Z"/>
      <path class="cls-1" d="m93.81,35.45c.4-.15.71-.52.77-.98.08-.65-.39-1.24-1.04-1.32l-11.81-1.41c-.65-.08-1.24.39-1.32,1.04-.08.65.39,1.24,1.04,1.32l11.81,1.41c.19.02.38,0,.55-.07Z"/>
      <path class="cls-1" d="m90.81,45.93c.21-.08.4-.22.54-.41.39-.53.28-1.27-.25-1.66l-9.58-7.04c-.53-.39-1.27-.28-1.66.25-.39.53-.28,1.27.25,1.66l9.58,7.04c.34.25.76.29,1.12.16Z"/>
      <path class="cls-1" d="m65.58,60.35l-18.29,10.56-18.29-10.56c-1.92-1.11-4.33.28-4.33,2.5v21.12c0,2.22,2.41,3.61,4.33,2.5l18.29-10.56,18.29,10.56c1.93,1.11,4.33-.28,4.33-2.5v-21.12c0-2.22-2.41-3.61-4.33-2.5Z"/>
      <ellipse class="cls-1" cx="47.25" cy="34.28" rx="31.83" ry="28.61"/>
    </g>
  </g>
</svg>