<?xml version="1.0" encoding="UTF-8"?>
<svg id="Layer_2" data-name="Layer 2" xmlns="http://www.w3.org/2000/svg" xmlns:xlink="http://www.w3.org/1999/xlink" viewBox="0 0 360 252">
  <defs>
    <style>
      .cls-1 {
        fill: url(#linear-gradient);
      }

      .cls-1, .cls-2, .cls-3, .cls-4, .cls-5, .cls-6, .cls-7, .cls-8, .cls-9 {
        stroke-width: 0px;
      }

      .cls-2 {
        fill: url(#linear-gradient-4);
      }

      .cls-3 {
        fill: url(#linear-gradient-2);
      }

      .cls-4 {
        fill: url(#linear-gradient-3);
      }

      .cls-5 {
        fill: url(#linear-gradient-8);
      }

      .cls-6 {
        fill: url(#linear-gradient-7);
      }

      .cls-7 {
        fill: url(#linear-gradient-5);
      }

      .cls-8 {
        fill: url(#linear-gradient-6);
      }

      .cls-9 {
        fill: #fff;
      }
    </style>
    <linearGradient id="linear-gradient" x1="180.28" y1="6.42" x2="179.42" y2="375.35" gradientUnits="userSpaceOnUse">
      <stop offset=".25" stop-color="#03164c"/>
      <stop offset=".34" stop-color="#10205e"/>
      <stop offset=".52" stop-color="#323c8d"/>
      <stop offset=".63" stop-color="#494eac"/>
    </linearGradient>
    <linearGradient id="linear-gradient-2" x1="271.11" y1="195.84" x2="310.05" y2="195.84" gradientUnits="userSpaceOnUse">
      <stop offset=".11" stop-color="#b399ff"/>
      <stop offset=".2" stop-color="#bcb1ff"/>
      <stop offset=".33" stop-color="#cad2ff"/>
      <stop offset=".45" stop-color="#d2e7ff"/>
      <stop offset=".52" stop-color="#d6efff"/>
      <stop offset=".6" stop-color="#d3e8ff"/>
      <stop offset=".71" stop-color="#ccd7ff"/>
      <stop offset=".83" stop-color="#c1bbff"/>
      <stop offset=".95" stop-color="#b399ff"/>
    </linearGradient>
    <linearGradient id="linear-gradient-3" x1="139.51" y1="126.44" x2="138.43" y2="219.61" gradientUnits="userSpaceOnUse">
      <stop offset=".15" stop-color="#b399ff"/>
      <stop offset=".23" stop-color="#bdb2ff"/>
      <stop offset=".35" stop-color="#cad3ff"/>
      <stop offset=".46" stop-color="#d3e7ff"/>
      <stop offset=".52" stop-color="#d6efff"/>
      <stop offset=".59" stop-color="#d2e5ff"/>
      <stop offset=".71" stop-color="#c7caff"/>
      <stop offset=".87" stop-color="#b6a0ff"/>
      <stop offset=".89" stop-color="#b399ff"/>
    </linearGradient>
    <linearGradient id="linear-gradient-4" x1="74.46" y1="142.9" x2="85.87" y2="130.37" gradientUnits="userSpaceOnUse">
      <stop offset=".15" stop-color="#b399ff"/>
      <stop offset=".27" stop-color="#bdb2ff"/>
      <stop offset=".52" stop-color="#d6efff"/>
      <stop offset=".59" stop-color="#d3e9ff"/>
      <stop offset=".68" stop-color="#ccd8ff"/>
      <stop offset=".78" stop-color="#c1bdff"/>
      <stop offset=".89" stop-color="#b399ff"/>
    </linearGradient>
    <linearGradient id="linear-gradient-5" x1="107.08" y1="125.45" x2="123.07" y2="130.53" gradientUnits="userSpaceOnUse">
      <stop offset=".09" stop-color="#b399ff"/>
      <stop offset=".52" stop-color="#d6efff"/>
      <stop offset=".62" stop-color="#d4eaff"/>
      <stop offset=".72" stop-color="#ceddff"/>
      <stop offset=".82" stop-color="#c5c7ff"/>
      <stop offset=".93" stop-color="#b9a8ff"/>
      <stop offset=".98" stop-color="#b399ff"/>
    </linearGradient>
    <linearGradient id="linear-gradient-6" x1="49.91" y1="160.03" x2="77.38" y2="160.03" xlink:href="#linear-gradient-3"/>
    <linearGradient id="linear-gradient-7" x1="53.57" y1="174.32" x2="78.51" y2="174.32" xlink:href="#linear-gradient-3"/>
    <linearGradient id="linear-gradient-8" x1="65.25" y1="187.3" x2="82.4" y2="187.3" xlink:href="#linear-gradient-3"/>
  </defs>
  <g id="Full_Colour" data-name="Full Colour">
    <g id="Dark">
      <rect class="cls-1" width="360" height="252"/>
      <g>
        <g>
          <path class="cls-9" d="m105.13,187.3c-3.74,0-7.2-.67-10.36-2.02-3.17-1.34-5.94-3.2-8.31-5.58-2.38-2.37-4.21-5.15-5.51-8.31-1.3-3.17-1.94-6.57-1.94-10.22s.65-7.05,1.94-10.22c1.3-3.17,3.12-5.92,5.47-8.28,2.35-2.35,5.11-4.2,8.28-5.54,3.17-1.34,6.6-2.02,10.29-2.02,4.13,0,7.71.66,10.76,1.98,1.23.53,2.4,1.14,3.52,1.83,2.56,1.57,3,5.12.87,7.24h0c-1.56,1.56-3.98,1.77-5.84.58-.7-.45-1.46-.85-2.26-1.19-2.02-.86-4.37-1.3-7.05-1.3-2.3,0-4.43.4-6.37,1.19-1.94.79-3.63,1.94-5.07,3.45-1.44,1.51-2.54,3.31-3.31,5.4-.77,2.09-1.15,4.38-1.15,6.87s.38,4.86,1.15,6.94c.77,2.09,1.87,3.87,3.31,5.36,1.44,1.49,3.13,2.64,5.07,3.45,1.94.82,4.09,1.22,6.44,1.22,2.83,0,5.25-.44,7.27-1.33.82-.36,1.59-.78,2.32-1.24,1.85-1.2,4.28-.98,5.84.58h.01c2.13,2.15,1.68,5.7-.9,7.27-1.17.71-2.41,1.34-3.7,1.89-3.14,1.32-6.73,1.98-10.76,1.98Z"/>
          <path class="cls-9" d="m171.19,187.3c-3.5,0-6.66-.8-9.46-2.41-2.81-1.61-5.03-3.79-6.66-6.55-1.63-2.76-2.45-5.87-2.45-9.32s.82-6.47,2.45-9.18c1.63-2.71,3.85-4.87,6.66-6.48s5.96-2.41,9.46-2.41,6.73.79,9.54,2.37,5.04,3.74,6.69,6.48c1.66,2.73,2.48,5.81,2.48,9.21s-.82,6.5-2.45,9.28c-1.63,2.78-3.86,4.98-6.69,6.59-2.83,1.61-6.02,2.41-9.57,2.41Zm0-8.85c1.77,0,3.35-.41,4.71-1.22,1.37-.82,2.42-1.92,3.17-3.31.74-1.39,1.12-3,1.12-4.82s-.4-3.43-1.19-4.82c-.79-1.39-1.85-2.48-3.17-3.27-1.32-.79-2.87-1.19-4.64-1.19s-3.26.4-4.61,1.19c-1.34.79-2.39,1.88-3.13,3.27-.74,1.39-1.12,3-1.12,4.82s.37,3.43,1.12,4.82c.74,1.39,1.79,2.5,3.13,3.31,1.34.82,2.88,1.22,4.61,1.22Z"/>
          <path class="cls-9" d="m218,151.75h-3.99v-10.33c0-2.29-1.85-4.14-4.14-4.14h-1.15c-2.29,0-4.14,1.85-4.14,4.14v10.33h-3.99c-2.29,0-4.14,1.85-4.14,4.14s1.85,4.14,4.14,4.14h3.99v22.35c0,2.29,1.85,4.14,4.14,4.14h1.15c2.29,0,4.14-1.85,4.14-4.14v-22.35h3.99c2.29,0,4.14-1.85,4.14-4.14s-1.85-4.14-4.14-4.14Z"/>
          <path class="cls-9" d="m262.16,157.44c-1.15-2.02-2.73-3.59-4.75-4.71-2.02-1.13-4.34-1.69-6.98-1.69s-4.99.58-7.05,1.73c-1.09.61-2.04,1.35-2.88,2.2v-18.42c0-1.14-.92-2.06-2.06-2.06h-5.3c-1.14,0-2.06.92-2.06,2.06v47.9c0,1.14.92,2.06,2.06,2.06h5.3c1.14,0,2.06-.92,2.06-2.06v-19.7c.17-.2.31-.42.4-.69.13-.39.3-.76.5-1.12.6-1.08,1.43-1.91,2.48-2.48,1.05-.58,2.25-.86,3.6-.86,2.01,0,3.67.65,4.97,1.94,1.3,1.3,1.94,2.98,1.94,5.04v17.87c0,1.14.92,2.06,2.06,2.06h5.37c1.14,0,2.06-.92,2.06-2.06v-20.03c0-2.64-.58-4.97-1.73-6.98Z"/>
          <path class="cls-9" d="m291.37,187.3c-3.5,0-6.66-.8-9.46-2.41-2.81-1.61-5.03-3.79-6.66-6.55-1.63-2.76-2.45-5.87-2.45-9.32s.82-6.47,2.45-9.18c1.63-2.71,3.85-4.87,6.66-6.48s5.96-2.41,9.46-2.41,6.73.79,9.54,2.37c2.81,1.58,5.04,3.74,6.69,6.48,1.65,2.73,2.48,5.81,2.48,9.21s-.82,6.5-2.45,9.28c-1.63,2.78-3.86,4.98-6.69,6.59-2.83,1.61-6.02,2.41-9.57,2.41Zm0-8.85c1.77,0,3.35-.41,4.71-1.22,1.37-.82,2.42-1.92,3.17-3.31.74-1.39,1.12-3,1.12-4.82s-.4-3.43-1.19-4.82c-.79-1.39-1.85-2.48-3.17-3.27-1.32-.79-2.87-1.19-4.64-1.19s-3.26.4-4.61,1.19c-1.34.79-2.39,1.88-3.13,3.27-.74,1.39-1.12,3-1.12,4.82s.37,3.43,1.12,4.82c.74,1.39,1.79,2.5,3.13,3.31,1.34.82,2.88,1.22,4.61,1.22Z"/>
        </g>
        <path class="cls-3" d="m306.51,185.1l-15.04,8.69-15.04-8.69c-1.58-.91-3.56.23-3.56,2.06v17.37c0,1.83,1.98,2.97,3.56,2.06l15.04-8.69,15.04,8.69c1.58.91,3.56-.23,3.56-2.06v-17.37c0-1.83-1.98-2.97-3.56-2.06Z"/>
        <path class="cls-4" d="m149.79,128.9h-20.68c-2.18,0-3.54,2.36-2.45,4.24l9.62,16.66-7.99,44.54c-.06.31.02.6.17.84.03.1.07.2.14.29l10.23,12.87c.32.4.92.4,1.24,0l10.23-12.87c.07-.09.11-.19.14-.29.15-.24.23-.53.17-.84l-7.99-44.54,9.62-16.66c1.09-1.88-.27-4.24-2.45-4.24Z"/>
        <path class="cls-2" d="m74.66,131.99l3.71,13.83c.36,1.33,2.13,1.58,2.84.4l.47-.78c2.07-3.43,4.95-6.3,8.37-8.37l.75-.45c1.18-.71.92-2.48-.4-2.84l-13.83-3.71c-1.16-.31-2.22.75-1.91,1.91Z"/>
        <path class="cls-7" d="m119.46,122.05l3.11,13.98c.3,1.34-1.16,2.38-2.33,1.67l-.77-.47c-3.42-2.08-7.3-3.3-11.29-3.55l-.87-.05c-1.37-.09-1.97-1.77-.96-2.7l10.55-9.68c.88-.81,2.31-.36,2.57.81Z"/>
        <path class="cls-8" d="m75.09,162.32h-22.89c-1.26,0-2.29-1.03-2.29-2.29s1.03-2.29,2.29-2.29h22.89c1.26,0,2.29,1.03,2.29,2.29s-1.03,2.29-2.29,2.29Z"/>
        <path class="cls-6" d="m55.86,181.84c-.83,0-1.63-.45-2.04-1.24-.58-1.12-.13-2.51.99-3.08l20.36-10.45c1.13-.58,2.51-.13,3.08.99.58,1.12.13,2.51-.99,3.08l-20.36,10.45c-.33.17-.69.25-1.04.25Z"/>
        <path class="cls-5" d="m67.53,199.15c-.43,0-.87-.12-1.26-.38-1.06-.69-1.35-2.11-.66-3.17l12.57-19.13c.69-1.06,2.11-1.35,3.17-.66,1.06.69,1.35,2.11.66,3.17l-12.57,19.13c-.44.67-1.17,1.03-1.92,1.03Z"/>
        <path class="cls-9" d="m233.66,95.83v-13.77c11.4-1.16,20.29-9.88,20.29-20.42,0-11.34-10.27-20.56-22.88-20.56s-22.88,9.22-22.88,20.56c0,1.43,1.16,2.59,2.59,2.59s2.59-1.16,2.59-2.59c0-8.48,7.94-15.37,17.7-15.37s17.7,6.9,17.7,15.37-7.94,15.37-17.7,15.37c-1.43,0-2.59,1.16-2.59,2.59,0,.03,0,.05,0,.08,0,.03,0,.05,0,.08v16.07c-35.48.98-63.92,21.86-63.92,47.41,0,2.35,1.9,4.25,4.25,4.25s4.25-1.9,4.25-4.25c0-21.48,26.02-38.95,58.01-38.95s58.01,17.47,58.01,38.95c0,2.35,1.9,4.25,4.25,4.25s4.25-1.9,4.25-4.25c0-25.55-28.44-46.43-63.92-47.41Z"/>
      </g>
    </g>
  </g>
</svg>