<svg width="37" height="41" viewBox="0 0 37 41" fill="none" xmlns="http://www.w3.org/2000/svg">
<path d="M32.6062 16.7002V10.9199C32.6062 7.88498 32.6062 6.36752 31.9979 5.20833C31.4627 4.18868 30.6088 3.35968 29.5585 2.84015C28.3644 2.24951 26.8013 2.24951 23.6752 2.24951H11.767C8.64085 2.24951 7.07777 2.24951 5.88373 2.84015C4.83342 3.35968 3.97949 4.18868 3.44433 5.20833C2.83594 6.36752 2.83594 7.88498 2.83594 10.9199V29.7057C2.83594 32.7407 2.83594 34.2581 3.44433 35.4173C3.97949 36.437 4.83342 37.266 5.88373 37.7855C7.07777 38.3761 8.64085 38.3761 11.767 38.3761H17.7211M18.6514 18.5065H10.2785M12.1392 25.7318H10.2785M25.1637 11.2812H10.2785M27.0192 25.4258C25.5312 23.7839 23.0498 23.3422 21.1854 24.8457C19.321 26.3493 19.0585 28.8631 20.5226 30.6413C21.9868 32.4195 27.0192 36.5698 27.0192 36.5698C27.0192 36.5698 32.0517 32.4195 33.5158 30.6413C34.9799 28.8631 34.7495 26.3334 32.853 24.8457C30.9566 23.358 28.5072 23.7839 27.0192 25.4258Z" stroke="#8229E0" stroke-width="4" stroke-linecap="round" stroke-linejoin="round"/>
</svg>
