<svg width="430" height="82" viewBox="0 0 430 82" fill="none" xmlns="http://www.w3.org/2000/svg">
<rect width="430" height="82" fill="url(#paint0_linear_415_4732)"/>
<ellipse cx="53.1122" cy="41.095" rx="27.1122" ry="27.095" fill="#8229E0"/>
<path d="M46.1236 42.1254C46.876 45.047 49.5298 47.2057 52.6881 47.2057C55.8464 47.2057 58.5002 45.047 59.2527 42.1254M51.0236 23.098L39.5309 32.0311C38.7626 32.6282 38.3785 32.9268 38.1018 33.3007C37.8567 33.6319 37.6741 34.0051 37.5629 34.4018C37.4375 34.8496 37.4375 35.3359 37.4375 36.3086V48.5605C37.4375 50.4573 37.4375 51.4057 37.8069 52.1302C38.1318 52.7675 38.6503 53.2856 39.2879 53.6103C40.0129 53.9795 40.9619 53.9795 42.8599 53.9795H62.5163C64.4144 53.9795 65.3634 53.9795 66.0883 53.6103C66.726 53.2856 67.2445 52.7675 67.5694 52.1302C67.9388 51.4057 67.9388 50.4573 67.9388 48.5605V36.3086C67.9388 35.3359 67.9388 34.8496 67.8133 34.4018C67.7022 34.0051 67.5196 33.6319 67.2745 33.3007C66.9977 32.9268 66.6136 32.6282 65.8454 32.0311L54.3527 23.098C53.7573 22.6353 53.4597 22.4039 53.131 22.315C52.841 22.2365 52.5353 22.2365 52.2453 22.315C51.9166 22.4039 51.6189 22.6353 51.0236 23.098Z" stroke="white" stroke-width="4" stroke-linecap="round" stroke-linejoin="round"/>
<path d="M144.479 29.1274L128.307 38.1062M128.307 38.1062L112.135 29.1274M128.307 38.1062L128.307 56.1696M145.431 38.1063V30.3893C145.431 29.7378 145.431 29.4121 145.335 29.1215C145.25 28.8645 145.111 28.6286 144.927 28.4295C144.72 28.2045 144.435 28.0463 143.865 27.7299L129.785 19.913C129.246 19.6135 128.976 19.4637 128.69 19.4049C128.438 19.353 128.177 19.353 127.924 19.4049C127.638 19.4637 127.368 19.6135 126.829 19.913L112.749 27.7299C112.18 28.0463 111.895 28.2045 111.687 28.4295C111.504 28.6286 111.365 28.8645 111.28 29.1215C111.184 29.4121 111.184 29.7378 111.184 30.3893V45.8232C111.184 46.4747 111.184 46.8005 111.28 47.091C111.365 47.348 111.504 47.5839 111.687 47.783C111.895 48.008 112.18 48.1662 112.749 48.4826L126.829 56.2995C127.368 56.5991 127.638 56.7488 127.924 56.8076C128.177 56.8595 128.438 56.8595 128.69 56.8076C128.976 56.7488 129.246 56.5991 129.785 56.2995L130.21 56.0639M119.745 23.8457L136.869 33.3528M147.333 56.1696L145.431 54.2682M147.333 49.5147C147.333 52.665 144.778 55.2189 141.625 55.2189C138.473 55.2189 135.918 52.665 135.918 49.5147C135.918 46.3643 138.473 43.8105 141.625 43.8105C144.778 43.8105 147.333 46.3643 147.333 49.5147Z" stroke="#8229E0" stroke-width="4" stroke-linecap="round" stroke-linejoin="round"/>
<rect x="178.604" y="23.4302" width="80.2522" height="35.7654" rx="17.8827" fill="#8229E0"/>
<rect x="205.173" y="38.6034" width="27.1122" height="5.41899" rx="2.7095" fill="white"/>
<rect x="216.019" y="54.8604" width="27.095" height="5.42244" rx="2.71122" transform="rotate(-90 216.019 54.8604)" fill="white"/>
<path d="M322.606 37.7002V31.9199C322.606 28.885 322.606 27.3675 321.998 26.2083C321.463 25.1887 320.609 24.3597 319.558 23.8401C318.364 23.2495 316.801 23.2495 313.675 23.2495H301.767C298.641 23.2495 297.078 23.2495 295.884 23.8401C294.833 24.3597 293.979 25.1887 293.444 26.2083C292.836 27.3675 292.836 28.885 292.836 31.9199V50.7057C292.836 53.7407 292.836 55.2581 293.444 56.4173C293.979 57.437 294.833 58.266 295.884 58.7855C297.078 59.3761 298.641 59.3761 301.767 59.3761H307.721M308.651 39.5065H300.279M302.139 46.7318H300.279M315.164 32.2812H300.279M317.019 46.4258C315.531 44.7839 313.05 44.3422 311.185 45.8457C309.321 47.3493 309.058 49.8631 310.523 51.6413C311.987 53.4195 317.019 57.5698 317.019 57.5698C317.019 57.5698 322.052 53.4195 323.516 51.6413C324.98 49.8631 324.749 47.3334 322.853 45.8457C320.957 44.358 318.507 44.7839 317.019 46.4258Z" stroke="#8229E0" stroke-width="4" stroke-linecap="round" stroke-linejoin="round"/>
<path d="M366.981 48.2264L370.603 46.1371C370.799 46.024 371.029 45.9846 371.252 46.0263L378.377 47.359C378.963 47.4685 379.503 47.018 379.501 46.4227L379.473 40.1834C379.472 40.0139 379.517 39.8472 379.602 39.7009L383.198 33.5484C383.385 33.2282 383.369 32.8284 383.155 32.525L377.101 23.9125M397.942 27.769C387.503 32.7781 393.197 39.4163 395.095 40.3647C398.657 42.1444 403.611 42.2612 403.611 42.2612C403.627 41.9471 403.635 41.6309 403.635 41.3129C403.635 30.838 395.138 22.3464 384.656 22.3464C374.175 22.3464 365.678 30.838 365.678 41.3129C365.678 51.7878 374.175 60.2794 384.656 60.2794C384.974 60.2794 385.291 60.2716 385.605 60.2561M393.686 60.1652L387.676 44.3305L403.521 50.3368L396.494 53.1435L393.686 60.1652Z" stroke="#8229E0" stroke-width="4" stroke-linecap="round" stroke-linejoin="round"/>
<defs>
<linearGradient id="paint0_linear_415_4732" x1="-92.5" y1="-202.887" x2="392.529" y2="223.804" gradientUnits="userSpaceOnUse">
<stop offset="0.175" stop-color="#DDB8FF" stop-opacity="0.8"/>
<stop offset="0.805" stop-color="#D6EFFF" stop-opacity="0.8"/>
</linearGradient>
</defs>
</svg>
