<?xml version="1.0" encoding="UTF-8"?>
<svg id="Layer_2" data-name="Layer 2" xmlns="http://www.w3.org/2000/svg" viewBox="0 0 72.69 88.45">
  <defs>
    <style>
      .cls-1 {
        fill: #494eac;
        stroke-width: 0px;
      }
    </style>
  </defs>
  <g id="Layer_12" data-name="Layer 12">
    <g>
      <path class="cls-1" d="m55.85,66.32c-3.74,0-7.2-.67-10.36-2.02-3.17-1.34-5.94-3.2-8.31-5.58-2.38-2.37-4.21-5.15-5.51-8.31s-1.94-6.57-1.94-10.22.65-7.05,1.94-10.22,3.12-5.92,5.47-8.28c2.35-2.35,5.11-4.2,8.28-5.54,3.17-1.34,6.6-2.02,10.29-2.02,4.13,0,7.71.66,10.76,1.98,1.23.53,2.4,1.14,3.52,1.83,2.56,1.57,3,5.12.87,7.24h0c-1.56,1.56-3.98,1.77-5.84.58-.7-.45-1.46-.85-2.26-1.19-2.02-.86-4.37-1.3-7.05-1.3-2.3,0-4.43.4-6.37,1.19-1.94.79-3.63,1.94-5.07,3.45-1.44,1.51-2.54,3.31-3.31,5.4-.77,2.09-1.15,4.38-1.15,6.87s.38,4.86,1.15,6.94c.77,2.09,1.87,3.87,3.31,5.36,1.44,1.49,3.13,2.64,5.07,3.45,1.94.82,4.09,1.22,6.44,1.22,2.83,0,5.25-.44,7.27-1.33.82-.36,1.59-.78,2.32-1.24,1.85-1.2,4.28-.98,5.84.58h.01c2.13,2.15,1.68,5.7-.9,7.27-1.17.71-2.41,1.34-3.7,1.89-3.14,1.32-6.73,1.98-10.76,1.98Z"/>
      <path class="cls-1" d="m24.74,11.16l3.71,13.83c.36,1.33,2.13,1.58,2.84.4l.47-.78c2.07-3.43,4.95-6.3,8.37-8.37l.75-.45c1.18-.71.92-2.48-.4-2.84l-13.83-3.71c-1.16-.31-2.22.75-1.91,1.91Z"/>
      <path class="cls-1" d="m69.55,1.22l3.11,13.98c.3,1.34-1.16,2.38-2.33,1.67l-.77-.47c-3.42-2.08-7.3-3.3-11.29-3.55l-.87-.05c-1.37-.09-1.97-1.77-.96-2.7L66.97.41c.88-.81,2.31-.36,2.57.81Z"/>
      <path class="cls-1" d="m25.18,41.49H2.29c-1.26,0-2.29-1.03-2.29-2.29s1.03-2.29,2.29-2.29h22.89c1.26,0,2.29,1.03,2.29,2.29s-1.03,2.29-2.29,2.29Z"/>
      <path class="cls-1" d="m5.95,61c-.83,0-1.63-.45-2.04-1.24-.58-1.12-.13-2.51.99-3.08l20.36-10.45c1.13-.58,2.51-.13,3.08.99.58,1.12.13,2.51-.99,3.08l-20.36,10.45c-.33.17-.69.25-1.04.25Z"/>
      <path class="cls-1" d="m17.62,78.32c-.43,0-.87-.12-1.26-.38-1.06-.69-1.35-2.11-.66-3.17l12.57-19.13c.69-1.06,2.11-1.35,3.17-.66,1.06.69,1.35,2.11.66,3.17l-12.57,19.13c-.44.67-1.17,1.03-1.92,1.03Z"/>
      <path class="cls-1" d="m69,66.64l-15.04,8.69-15.04-8.69c-1.58-.91-3.56.23-3.56,2.06v17.37c0,1.83,1.98,2.97,3.56,2.06l15.04-8.69,15.04,8.69c1.58.91,3.56-.23,3.56-2.06v-17.37c0-1.83-1.98-2.97-3.56-2.06Z"/>
    </g>
  </g>
</svg>